<svg width="44" height="45" viewBox="0 0 44 45" fill="none" xmlns="http://www.w3.org/2000/svg">
<circle cx="21.7676" cy="22.5757" r="21.7676" fill="#4EAF4E"/>
<path d="M18.9082 22.7153H24.4252" stroke="#0D0D0D" stroke-linecap="round" stroke-linejoin="round"/>
<path d="M18.9082 25.4736H24.4252" stroke="#0D0D0D" stroke-linecap="round" stroke-linejoin="round"/>
<path d="M15.4601 15.1294H27.8733C28.0562 15.1294 28.2316 15.2021 28.3609 15.3314C28.4903 15.4607 28.5629 15.6361 28.5629 15.819V28.9218C28.5629 29.4705 28.345 29.9967 27.957 30.3847C27.569 30.7727 27.0428 30.9907 26.4941 30.9907H16.8394C16.2907 30.9907 15.7645 30.7727 15.3765 30.3847C14.9885 29.9967 14.7705 29.4705 14.7705 28.9218V15.819C14.7705 15.6361 14.8432 15.4607 14.9725 15.3314C15.1018 15.2021 15.2772 15.1294 15.4601 15.1294Z" stroke="#0D0D0D" stroke-linecap="round" stroke-linejoin="round"/>
<path d="M17.5283 13.7505V16.509" stroke="#0D0D0D" stroke-linecap="round" stroke-linejoin="round"/>
<path d="M21.666 13.7505V16.509" stroke="#0D0D0D" stroke-linecap="round" stroke-linejoin="round"/>
<path d="M25.8037 13.7505V16.509" stroke="#0D0D0D" stroke-linecap="round" stroke-linejoin="round"/>
</svg>
